<svg xmlns="http://www.w3.org/2000/svg" viewBox="0 0 127.43126684636118 154.5" height="154.5" width="127.43126684636118" data-background-color="#ffffff" preserveAspectRatio="xMidYMid meet" id="tight-bounds"><g><svg viewBox="0 0 127.43126684636118 154.5" height="154.5" width="127.43126684636118"><g><svg viewBox="0 0 127.43126684636118 154.5" height="154.5" width="127.43126684636118"><g id="textblocktransform"><svg viewBox="0 0 127.43126684636118 154.5" height="154.5" width="127.43126684636118" id="textblock"><g><svg viewBox="0 0 127.43126684636118 154.5" height="154.5" width="127.43126684636118"><g transform="matrix(1,0,0,1,0,0)"><svg width="127.43126684636118" viewBox="3.5 -37.099998474121094 30.599998474121094 37.099998474121094" height="154.5" data-palette-color="url(#9a4486e7-26fe-4227-a6f9-3ad30da28fb4)"/></g></svg></g></svg></g></svg></g><g/></svg><mask id="37c899af-d11e-4b19-9f55-e65fd64dc49f">
    <svg
            viewBox="0 0 127.43126684636118 154.5" height="154.5" width="127.43126684636118"
            data-background-color="#ffffff" preserveAspectRatio="xMidYMid meet" id="SvgjsSvg1063"><g><svg viewBox="0 0 127.43126684636118 154.5" height="154.5" width="127.43126684636118"><g><svg viewBox="0 0 127.43126684636118 154.5" height="154.5" width="127.43126684636118"><g id="SvgjsG1062"><svg viewBox="0 0 127.43126684636118 154.5" height="154.5" width="127.43126684636118" id="SvgjsSvg1061"><g><svg viewBox="0 0 127.43126684636118 154.5" height="154.5" width="127.43126684636118"><g transform="matrix(1,0,0,1,0,0)"><svg width="127.43126684636118" viewBox="3.5 -37.099998474121094 30.599998474121094 37.099998474121094" height="154.5" data-palette-color="url(#9a4486e7-26fe-4227-a6f9-3ad30da28fb4)"><path d="M24.65-15.85L12.9-15.85Q12.25-15.85 12.25-15.2L12.25-15.2 12.25-1.15Q12.25 0 10.9 0L10.9 0 4.6 0Q3.95 0 3.73-0.25 3.5-0.5 3.5-1.05L3.5-1.05 3.5-36.15Q3.5-37.1 4.3-37.1L4.3-37.1 11.45-37.1Q12.25-37.1 12.25-36.2L12.25-36.2 12.25-23.4Q12.25-22.55 13-22.55L13-22.55 24.55-22.55Q25.35-22.55 25.35-23.35L25.35-23.35 25.35-36.2Q25.35-37.1 26.1-37.1L26.1-37.1 33.25-37.1Q34.1-37.1 34.1-36.15L34.1-36.15 34.1-1.05Q34.1-0.5 33.88-0.25 33.65 0 33 0L33 0 26.65 0Q25.35 0 25.35-1.15L25.35-1.15 25.35-15.2Q25.35-15.85 24.65-15.85L24.65-15.85Z" opacity="1" transform="matrix(1,0,0,1,0,0)" fill="white" class="wordmark-text-0" id="SvgjsPath1060"/></svg></g></svg></g></svg></g></svg></g><g/></svg></g><defs><mask/></defs></svg></mask><linearGradient x1="0" x2="1" y1="0.548" y2="0.55" id="9a4486e7-26fe-4227-a6f9-3ad30da28fb4"><stop stop-color="#ff6cab" offset="0"/><stop stop-color="#7366ff" offset="1"/></linearGradient><rect width="127.43126684636118" height="154.5" fill="url(#9a4486e7-26fe-4227-a6f9-3ad30da28fb4)" mask="url(#37c899af-d11e-4b19-9f55-e65fd64dc49f)" data-fill-palette-color="primary"/></g><defs><mask/></defs></svg>